  0
SECTION
  2
HEADER
  9
$ACADVER
  1
AC1009
  9
$DWGCODEPAGE
  3
ansi_1252
  9
$INSBASE
 10
0.0
 20
0.0
 30
0.0
  9
$EXTMIN
 10
0.0
 20
0.0
 30
0.0
  9
$EXTMAX
 10
382.326019
 20
825.084351
 30
2.0
  9
$LIMMIN
 10
0.0
 20
0.0
  9
$LIMMAX
 10
420.0
 20
297.0
  9
$ORTHOMODE
 70
     0
  9
$REGENMODE
 70
     1
  9
$FILLMODE
 70
     1
  9
$QTEXTMODE
 70
     0
  9
$MIRRTEXT
 70
     1
  9
$DRAGMODE
 70
     2
  9
$LTSCALE
 40
1.0
  9
$OSMODE
 70
     0
  9
$ATTMODE
 70
     1
  9
$TEXTSIZE
 40
2.5
  9
$TRACEWID
 40
1.0
  9
$TEXTSTYLE
  7
STANDARD
  9
$CLAYER
  8
0
  9
$CELTYPE
  6
BYLAYER
  9
$CECOLOR
 62
   256
  9
$DIMSCALE
 40
1.0
  9
$DIMASZ
 40
2.5
  9
$DIMEXO
 40
0.625
  9
$DIMDLI
 40
3.75
  9
$DIMRND
 40
0.0
  9
$DIMDLE
 40
0.0
  9
$DIMEXE
 40
1.25
  9
$DIMTP
 40
0.0
  9
$DIMTM
 40
0.0
  9
$DIMTXT
 40
2.5
  9
$DIMCEN
 40
2.5
  9
$DIMTSZ
 40
0.0
  9
$DIMTOL
 70
     0
  9
$DIMLIM
 70
     0
  9
$DIMTIH
 70
     0
  9
$DIMTOH
 70
     0
  9
$DIMSE1
 70
     0
  9
$DIMSE2
 70
     0
  9
$DIMTAD
 70
     1
  9
$DIMZIN
 70
     8
  9
$DIMBLK
  1

  9
$DIMASO
 70
     1
  9
$DIMSHO
 70
     1
  9
$DIMPOST
  1

  9
$DIMAPOST
  1

  9
$DIMALT
 70
     0
  9
$DIMALTD
 70
     3
  9
$DIMALTF
 40
0.03937
  9
$DIMLFAC
 40
1.0
  9
$DIMTOFL
 70
     1
  9
$DIMTVP
 40
0.0
  9
$DIMTIX
 70
     0
  9
$DIMSOXD
 70
     0
  9
$DIMSAH
 70
     0
  9
$DIMBLK1
  1

  9
$DIMBLK2
  1

  9
$DIMSTYLE
  2

  9
$DIMCLRD
 70
     0
  9
$DIMCLRE
 70
     0
  9
$DIMCLRT
 70
     0
  9
$DIMTFAC
 40
1.0
  9
$DIMGAP
 40
0.625
  9
$LUNITS
 70
     2
  9
$LUPREC
 70
     4
  9
$AXISMODE
 70
     0
  9
$AXISUNIT
 10
0.0
 20
0.0
  9
$SKETCHINC
 40
1.0
  9
$FILLETRAD
 40
2.5
  9
$AUNITS
 70
     0
  9
$AUPREC
 70
     0
  9
$MENU
  1
.
  9
$ELEVATION
 40
0.0
  9
$PELEVATION
 40
0.0
  9
$THICKNESS
 40
0.0
  9
$LIMCHECK
 70
     0
  9
$BLIPMODE
 70
     1
  9
$CHAMFERA
 40
2.5
  9
$CHAMFERB
 40
2.5
  9
$SKPOLY
 70
     0
  9
$TDCREATE
 40
0.000000000
  9
$TDUPDATE
 40
0.000000000
  9
$TDINDWG
 40
0.0000000000
  9
$TDUSRTIMER
 40
0.0000000000
  9
$USRTIMER
 70
     1
  9
$ANGBASE
 50
0.0
  9
$ANGDIR
 70
     0
  9
$PDMODE
 70
     0
  9
$PDSIZE
 40
0.0
  9
$PLINEWID
 40
0.0
  9
$COORDS
 70
     0
  9
$SPLFRAME
 70
     0
  9
$SPLINETYPE
 70
     6
  9
$SPLINESEGS
 70
     8
  9
$ATTDIA
 70
     0
  9
$ATTREQ
 70
     1
  9
$HANDLING
 70
     0
  9
$HANDSEED
  5
3
  9
$SURFTAB1
 70
     6
  9
$SURFTAB2
 70
     6
  9
$SURFTYPE
 70
     6
  9
$SURFU
 70
     6
  9
$SURFV
 70
     6
  9
$UCSNAME
  2

  9
$UCSORG
 10
0.0
 20
0.0
 30
0.0
  9
$UCSXDIR
 10
1.0
 20
0.0
 30
0.0
  9
$UCSYDIR
 10
0.0
 20
1.0
 30
0.0
  9
$PUCSNAME
  2

  9
$PUCSORG
 10
0.0
 20
0.0
 30
0.0
  9
$PUCSXDIR
 10
1.0
 20
0.0
 30
0.0
  9
$PUCSYDIR
 10
0.0
 20
1.0
 30
0.0
  9
$USERI1
 70
     0
  9
$USERI2
 70
     0
  9
$USERI3
 70
     0
  9
$USERI4
 70
     0
  9
$USERI5
 70
     0
  9
$USERR1
 40
0.0
  9
$USERR2
 40
0.0
  9
$USERR3
 40
0.0
  9
$USERR4
 40
0.0
  9
$USERR5
 40
0.0
  9
$WORLDVIEW
 70
     1
  9
$SHADEDGE
 70
     3
  9
$SHADEDIF
 70
    70
  9
$TILEMODE
 70
     1
  9
$MAXACTVP
 70
    48
  9
$PINSBASE
 10
0.0
 20
0.0
 30
0.0
  9
$PLIMCHECK
 70
     0
  9
$PEXTMIN
 10
0.0
 20
0.0
 30
0.0
  9
$PEXTMAX
 10
382.326019
 20
825.084351
 30
2.0
  9
$PLIMMIN
 10
0.0
 20
0.0
  9
$PLIMMAX
 10
420.0
 20
297.0
  9
$UNITMODE
 70
     0
  9
$VISRETAIN
 70
     0
  9
$PLINEGEN
 70
     0
  9
$PSLTSCALE
 70
     1
  9
$TREEDEPTH
 70
  3020
  0
ENDSEC
  0
SECTION
  2
TABLES
  0
TABLE
  2
VPORT
 70
     1
  0
VPORT
  2
*ACTIVE
 70
     0
 10
0.0
 20
0.0
 11
1.0
 21
1.0
 12
6.591288
 22
4.579184
 13
0.0
 23
0.0
 14
1.0
 24
1.0
 15
0.0
 25
0.0
 16
0.0
 26
0.0
 36
1.0
 17
0.0
 27
0.0
 37
0.0
 40
9.158369
 41
0.688564
 42
50.0
 43
0.0
 44
0.0
 50
0.0
 51
0.0
 71
     0
 72
   100
 73
     1
 74
     1
 75
     0
 76
     0
 77
     0
 78
     0
  0
ENDTAB
  0
TABLE
  2
LTYPE
 70
     1
  0
LTYPE
  2
CONTINUOUS
 70
    64
  3
Solid line
 72
    65
 73
     0
 40
0.0
  0
ENDTAB
  0
TABLE
  2
LAYER
 70
     1
  0
LAYER
  2
0
 70
     0
 62
     7
  6
CONTINUOUS
  0
ENDTAB
  0
TABLE
  2
STYLE
 70
     1
  0
STYLE
  2
STANDARD
 70
     0
 40
0.0
 41
1.0
 50
0.0
 71
     0
 42
0.0
  3
txt
  4

  0
ENDTAB
  0
TABLE
  2
VIEW
 70
     0
  0
ENDTAB
  0
TABLE
  2
UCS
 70
     0
  0
ENDTAB
  0
TABLE
  2
APPID
 70
     1
  0
APPID
  2
ACAD
 70
     0
  0
ENDTAB
  0
TABLE
  2
DIMSTYLE
 70
     1
  0
DIMSTYLE
  2
STANDARD
 70
     0
  3

  4

  5

  6

  7

 40
1.0
 41
0.18
 42
0.0625
 43
0.38
 44
0.18
 45
0.0
 46
0.0
 47
0.0
 48
0.0
 71
     0
 72
     0
 73
     1
 74
     1
 75
     0
 76
     0
 77
     0
 78
     0
140
0.18
141
0.09
142
0.0
143
25.4
144
1.0
145
0.0
146
1.0
147
0.09
170
     0
171
     2
172
     0
173
     0
174
     0
175
     0
176
     0
177
     0
178
     0
  0
ENDTAB
  0
ENDSEC
  0
SECTION
  2
BLOCKS
  0
ENDSEC
  0
SECTION
  2
ENTITIES
  0
VIEWPORT
  8
0
 62
     0
 67
     1
 68
     1
 10
0.0
 20
0.0
 30
0.0
 40
1000.0
 41
1000.0
 69
     1
1001
ACAD
1000
MVIEW
1002
{
1070
    16
1010
0.0
1020
0.0
1030
0.0
1010
0.0
1020
0.0
1030
1.0
1040
0.0
1040
1000.0
1040
0.0
1040
0.0
1040
50.0
1040
0.0
1040
0.0
1070
     0
1070
   100
1070
     1
1070
     1
1070
     0
1070
     0
1070
     0
1070
     0
1040
0.0
1040
0.0
1040
0.0
1040
1.0
1040
1.0
1040
1.0
1040
1.0
1070
     0
1002
{
1002
}
1002
}
  0
CIRCLE
  8
0
 62
     7
 10
257.326019
 20
820.084351
 30
0.0
 40
1.25
210
0.0
220
0.0
230
1.0
  0
CIRCLE
  8
0
 62
     7
 10
377.326019
 20
820.084351
 30
0.0
 40
1.25
210
0.0
220
0.0
230
1.0
  0
CIRCLE
  8
0
 62
     7
 10
257.326019
 20
690.084351
 30
0.0
 40
1.25
210
0.0
220
0.0
230
1.0
  0
CIRCLE
  8
0
 62
     7
 10
377.326019
 20
690.084351
 30
0.0
 40
1.25
210
0.0
220
0.0
230
1.0
  0
CIRCLE
  8
0
 62
     7
 10
335.326019
 20
731.084351
 30
0.0
 40
1.25
210
0.0
220
0.0
230
1.0
  0
CIRCLE
  8
0
 62
     7
 10
299.326019
 20
779.084351
 30
0.0
 40
1.25
210
0.0
220
0.0
230
1.0
  0
CIRCLE
  8
0
 62
     7
 10
335.326019
 20
803.084351
 30
0.0
 40
1.25
210
0.0
220
0.0
230
1.0
  0
CIRCLE
  8
0
 62
     7
 10
299.326019
 20
731.084351
 30
0.0
 40
1.25
210
0.0
220
0.0
230
1.0
  0
CIRCLE
  8
0
 62
     7
 10
335.326019
 20
707.084351
 30
0.0
 40
1.25
210
0.0
220
0.0
230
1.0
  0
CIRCLE
  8
0
 62
     7
 10
299.326019
 20
755.084351
 30
0.0
 40
1.25
210
0.0
220
0.0
230
1.0
  0
CIRCLE
  8
0
 62
     7
 10
335.326019
 20
779.084351
 30
0.0
 40
1.25
210
0.0
220
0.0
230
1.0
  0
CIRCLE
  8
0
 62
     7
 10
335.326019
 20
755.084351
 30
0.0
 40
1.25
210
0.0
220
0.0
230
1.0
  0
CIRCLE
  8
0
 62
     7
 10
299.326019
 20
707.084351
 30
0.0
 40
1.25
210
0.0
220
0.0
230
1.0
  0
CIRCLE
  8
0
 62
     7
 10
299.326019
 20
803.084351
 30
0.0
 40
1.25
210
0.0
220
0.0
230
1.0
  0
CIRCLE
  8
0
 62
     7
 10
313.326019
 20
690.084351
 30
0.0
 40
0.75
210
0.0
220
0.0
230
1.0
  0
CIRCLE
  8
0
 62
     7
 10
321.326019
 20
820.084351
 30
0.0
 40
0.75
210
0.0
220
0.0
230
1.0
  0
CIRCLE
  8
0
 62
     7
 10
321.326019
 20
690.084351
 30
0.0
 40
0.75
210
0.0
220
0.0
230
1.0
  0
CIRCLE
  8
0
 62
     7
 10
313.326019
 20
804.084351
 30
0.0
 40
1.0
210
0.0
220
0.0
230
1.0
  0
CIRCLE
  8
0
 62
     7
 10
313.326019
 20
706.084351
 30
0.0
 40
1.0
210
0.0
220
0.0
230
1.0
  0
CIRCLE
  8
0
 62
     7
 10
321.326019
 20
804.084351
 30
0.0
 40
1.0
210
0.0
220
0.0
230
1.0
  0
CIRCLE
  8
0
 62
     7
 10
321.326019
 20
706.084351
 30
0.0
 40
1.0
210
0.0
220
0.0
230
1.0
  0
CIRCLE
  8
0
 62
     7
 10
313.326019
 20
820.084351
 30
0.0
 40
0.75
210
0.0
220
0.0
230
1.0
  0
LINE
  8
0
 62
     7
 10
266.826019
 20
710.084351
 30
0.0
 11
266.826019
 21
740.084351
 31
0.0
210
0.0
220
0.0
230
1.0
  0
ARC
  8
0
 62
     7
 10
264.326019
 20
710.084351
 30
0.0
 40
2.5
 50
180.000005
 51
360.0
210
0.0
220
0.0
230
1.0
  0
ARC
  8
0
 62
     7
 10
264.326019
 20
740.084351
 30
0.0
 40
2.5
 50
0.0
 51
180.000005
210
0.0
220
0.0
230
1.0
  0
LINE
  8
0
 62
     7
 10
261.826019
 20
740.084351
 30
0.0
 11
261.826019
 21
710.084351
 31
0.0
210
0.0
220
0.0
230
1.0
  0
ARC
  8
0
 62
     7
 10
276.326019
 20
800.084351
 30
0.0
 40
2.5
 50
0.0
 51
180.000005
210
0.0
220
0.0
230
1.0
  0
LINE
  8
0
 62
     7
 10
278.826019
 20
800.084351
 30
0.0
 11
278.826019
 21
770.084351
 31
0.0
210
0.0
220
0.0
230
1.0
  0
LINE
  8
0
 62
     7
 10
273.826019
 20
770.084351
 30
0.0
 11
273.826019
 21
800.084351
 31
0.0
210
0.0
220
0.0
230
1.0
  0
ARC
  8
0
 62
     7
 10
276.326019
 20
770.084351
 30
0.0
 40
2.5
 50
180.000005
 51
0.0
210
0.0
220
0.0
230
1.0
  0
ARC
  8
0
 62
     7
 10
370.326019
 20
710.084351
 30
0.0
 40
2.5
 50
180.000005
 51
360.0
210
0.0
220
0.0
230
1.0
  0
LINE
  8
0
 62
     7
 10
367.826019
 20
710.084351
 30
0.0
 11
367.826019
 21
740.084351
 31
0.0
210
0.0
220
0.0
230
1.0
  0
LINE
  8
0
 62
     7
 10
372.826019
 20
740.084351
 30
0.0
 11
372.826019
 21
710.084351
 31
0.0
210
0.0
220
0.0
230
1.0
  0
ARC
  8
0
 62
     7
 10
370.326019
 20
740.084351
 30
0.0
 40
2.5
 50
0.0
 51
180.000005
210
0.0
220
0.0
230
1.0
  0
LINE
  8
0
 62
     7
 10
367.826019
 20
800.084351
 30
0.0
 11
367.826019
 21
770.084351
 31
0.0
210
0.0
220
0.0
230
1.0
  0
ARC
  8
0
 62
     7
 10
370.326019
 20
800.084351
 30
0.0
 40
2.5
 50
0.0
 51
180.000005
210
0.0
220
0.0
230
1.0
  0
ARC
  8
0
 62
     7
 10
370.326019
 20
770.084351
 30
0.0
 40
2.5
 50
180.000005
 51
360.0
210
0.0
220
0.0
230
1.0
  0
LINE
  8
0
 62
     7
 10
372.826019
 20
770.084351
 30
0.0
 11
372.826019
 21
800.084351
 31
0.0
210
0.0
220
0.0
230
1.0
  0
LINE
  8
0
 62
     7
 10
278.826019
 20
710.084351
 30
0.0
 11
278.826019
 21
740.084351
 31
0.0
210
0.0
220
0.0
230
1.0
  0
ARC
  8
0
 62
     7
 10
276.326019
 20
710.084351
 30
0.0
 40
2.5
 50
180.000005
 51
360.0
210
0.0
220
0.0
230
1.0
  0
ARC
  8
0
 62
     7
 10
276.326019
 20
740.084351
 30
0.0
 40
2.5
 50
0.0
 51
180.000005
210
0.0
220
0.0
230
1.0
  0
LINE
  8
0
 62
     7
 10
273.826019
 20
740.084351
 30
0.0
 11
273.826019
 21
710.084351
 31
0.0
210
0.0
220
0.0
230
1.0
  0
LINE
  8
0
 62
     7
 10
355.826019
 20
800.084351
 30
0.0
 11
355.826019
 21
770.084351
 31
0.0
210
0.0
220
0.0
230
1.0
  0
ARC
  8
0
 62
     7
 10
358.326019
 20
800.084351
 30
0.0
 40
2.5
 50
0.0
 51
180.000005
210
0.0
220
0.0
230
1.0
  0
ARC
  8
0
 62
     7
 10
358.326019
 20
770.084351
 30
0.0
 40
2.5
 50
180.000005
 51
0.0
210
0.0
220
0.0
230
1.0
  0
LINE
  8
0
 62
     7
 10
360.826019
 20
770.084351
 30
0.0
 11
360.826019
 21
800.084351
 31
0.0
210
0.0
220
0.0
230
1.0
  0
ARC
  8
0
 62
     7
 10
358.326019
 20
710.084351
 30
0.0
 40
2.5
 50
180.000005
 51
360.0
210
0.0
220
0.0
230
1.0
  0
LINE
  8
0
 62
     7
 10
355.826019
 20
710.084351
 30
0.0
 11
355.826019
 21
740.084351
 31
0.0
210
0.0
220
0.0
230
1.0
  0
LINE
  8
0
 62
     7
 10
360.826019
 20
740.084351
 30
0.0
 11
360.826019
 21
710.084351
 31
0.0
210
0.0
220
0.0
230
1.0
  0
ARC
  8
0
 62
     7
 10
358.326019
 20
740.084351
 30
0.0
 40
2.5
 50
0.0
 51
180.000005
210
0.0
220
0.0
230
1.0
  0
ARC
  8
0
 62
     7
 10
264.326019
 20
800.084351
 30
0.0
 40
2.5
 50
0.0
 51
180.000005
210
0.0
220
0.0
230
1.0
  0
LINE
  8
0
 62
     7
 10
266.826019
 20
800.084351
 30
0.0
 11
266.826019
 21
770.084351
 31
0.0
210
0.0
220
0.0
230
1.0
  0
LINE
  8
0
 62
     7
 10
261.826019
 20
770.084351
 30
0.0
 11
261.826019
 21
800.084351
 31
0.0
210
0.0
220
0.0
230
1.0
  0
ARC
  8
0
 62
     7
 10
264.326019
 20
770.084351
 30
0.0
 40
2.5
 50
180.000005
 51
360.0
210
0.0
220
0.0
230
1.0
  0
ARC
  8
0
 62
     7
 10
379.326019
 20
688.084351
 30
0.0
 40
3.0
 50
269.999997
 51
360.0
210
0.0
220
0.0
230
1.0
  0
LINE
  8
0
 62
     7
 10
382.326019
 20
688.084351
 30
0.0
 11
382.326019
 21
822.084351
 31
0.0
210
0.0
220
0.0
230
1.0
  0
ARC
  8
0
 62
     7
 10
379.326019
 20
822.084351
 30
0.0
 40
3.0
 50
0.0
 51
90.000003
210
0.0
220
0.0
230
1.0
  0
LINE
  8
0
 62
     7
 10
255.326019
 20
825.084351
 30
0.0
 11
379.326019
 21
825.084351
 31
0.0
210
0.0
220
0.0
230
1.0
  0
ARC
  8
0
 62
     7
 10
255.326019
 20
822.084351
 30
0.0
 40
3.0
 50
90.000003
 51
180.000005
210
0.0
220
0.0
230
1.0
  0
LINE
  8
0
 62
     7
 10
379.326019
 20
685.084351
 30
0.0
 11
255.326019
 21
685.084351
 31
0.0
210
0.0
220
0.0
230
1.0
  0
LINE
  8
0
 62
     7
 10
252.326019
 20
822.084351
 30
0.0
 11
252.326019
 21
688.084351
 31
0.0
210
0.0
220
0.0
230
1.0
  0
ARC
  8
0
 62
     7
 10
255.326019
 20
688.084351
 30
0.0
 40
3.0
 50
180.000005
 51
269.999997
210
0.0
220
0.0
230
1.0
  0
CIRCLE
  8
0
 62
     7
 10
244.146545
 20
507.5466
 30
0.0
 40
1.25
210
0.0
220
0.0
230
1.0
  0
CIRCLE
  8
0
 62
     7
 10
374.146545
 20
507.5466
 30
0.0
 40
1.25
210
0.0
220
0.0
230
1.0
  0
CIRCLE
  8
0
 62
     7
 10
244.146545
 20
417.5466
 30
0.0
 40
1.25
210
0.0
220
0.0
230
1.0
  0
CIRCLE
  8
0
 62
     7
 10
374.146545
 20
417.5466
 30
0.0
 40
1.25
210
0.0
220
0.0
230
1.0
  0
LINE
  8
0
 62
     7
 10
254.146545
 20
417.5466
 30
0.0
 11
299.146545
 21
417.5466
 31
0.0
210
0.0
220
0.0
230
1.0
  0
LINE
  8
0
 62
     7
 10
254.146545
 20
417.5466
 30
0.0
 11
254.146545
 21
421.5466
 31
0.0
210
0.0
220
0.0
230
1.0
  0
LINE
  8
0
 62
     7
 10
299.146545
 20
421.5466
 30
0.0
 11
299.146545
 21
417.5466
 31
0.0
210
0.0
220
0.0
230
1.0
  0
LINE
  8
0
 62
     7
 10
299.146545
 20
421.5466
 30
0.0
 11
254.146545
 21
421.5466
 31
0.0
210
0.0
220
0.0
230
1.0
  0
LINE
  8
0
 62
     7
 10
364.146545
 20
507.5466
 30
0.0
 11
319.146545
 21
507.5466
 31
0.0
210
0.0
220
0.0
230
1.0
  0
LINE
  8
0
 62
     7
 10
364.146545
 20
507.5466
 30
0.0
 11
364.146545
 21
503.5466
 31
0.0
210
0.0
220
0.0
230
1.0
  0
LINE
  8
0
 62
     7
 10
319.146545
 20
503.5466
 30
0.0
 11
319.146545
 21
507.5466
 31
0.0
210
0.0
220
0.0
230
1.0
  0
LINE
  8
0
 62
     7
 10
319.146545
 20
503.5466
 30
0.0
 11
364.146545
 21
503.5466
 31
0.0
210
0.0
220
0.0
230
1.0
  0
LINE
  8
0
 62
     7
 10
364.146545
 20
417.5466
 30
0.0
 11
364.146545
 21
421.5466
 31
0.0
210
0.0
220
0.0
230
1.0
  0
LINE
  8
0
 62
     7
 10
364.146545
 20
417.5466
 30
0.0
 11
319.146545
 21
417.5466
 31
0.0
210
0.0
220
0.0
230
1.0
  0
LINE
  8
0
 62
     7
 10
319.146545
 20
421.5466
 30
0.0
 11
364.146545
 21
421.5466
 31
0.0
210
0.0
220
0.0
230
1.0
  0
LINE
  8
0
 62
     7
 10
319.146545
 20
421.5466
 30
0.0
 11
319.146545
 21
417.5466
 31
0.0
210
0.0
220
0.0
230
1.0
  0
LINE
  8
0
 62
     7
 10
254.146545
 20
507.5466
 30
0.0
 11
254.146545
 21
503.5466
 31
0.0
210
0.0
220
0.0
230
1.0
  0
LINE
  8
0
 62
     7
 10
254.146545
 20
507.5466
 30
0.0
 11
299.146545
 21
507.5466
 31
0.0
210
0.0
220
0.0
230
1.0
  0
LINE
  8
0
 62
     7
 10
299.146545
 20
503.5466
 30
0.0
 11
254.146545
 21
503.5466
 31
0.0
210
0.0
220
0.0
230
1.0
  0
LINE
  8
0
 62
     7
 10
299.146545
 20
503.5466
 30
0.0
 11
299.146545
 21
507.5466
 31
0.0
210
0.0
220
0.0
230
1.0
  0
ARC
  8
0
 62
     7
 10
376.146545
 20
415.5466
 30
0.0
 40
3.0
 50
269.999997
 51
360.0
210
0.0
220
0.0
230
1.0
  0
LINE
  8
0
 62
     7
 10
379.146545
 20
415.5466
 30
0.0
 11
379.146545
 21
509.5466
 31
0.0
210
0.0
220
0.0
230
1.0
  0
ARC
  8
0
 62
     7
 10
376.146545
 20
509.5466
 30
0.0
 40
3.0
 50
0.0
 51
90.000003
210
0.0
220
0.0
230
1.0
  0
LINE
  8
0
 62
     7
 10
376.146545
 20
412.5466
 30
0.0
 11
242.146545
 21
412.5466
 31
0.0
210
0.0
220
0.0
230
1.0
  0
ARC
  8
0
 62
     7
 10
242.146545
 20
415.5466
 30
0.0
 40
3.0
 50
180.000005
 51
269.999997
210
0.0
220
0.0
230
1.0
  0
LINE
  8
0
 62
     7
 10
242.146545
 20
512.546631
 30
0.0
 11
376.146545
 21
512.546631
 31
0.0
210
0.0
220
0.0
230
1.0
  0
LINE
  8
0
 62
     7
 10
239.146545
 20
509.5466
 30
0.0
 11
239.146545
 21
415.5466
 31
0.0
210
0.0
220
0.0
230
1.0
  0
ARC
  8
0
 62
     7
 10
242.146545
 20
509.5466
 30
0.0
 40
3.0
 50
90.000003
 51
180.000005
210
0.0
220
0.0
230
1.0
  0
CIRCLE
  8
0
 62
     7
 10
149.197144
 20
739.862427
 30
0.0
 40
2.5
210
0.0
220
0.0
230
1.0
  0
CIRCLE
  8
0
 62
     7
 10
106.947144
 20
677.362427
 30
0.0
 40
1.25
210
0.0
220
0.0
230
1.0
  0
CIRCLE
  8
0
 62
     7
 10
191.447144
 20
677.362427
 30
0.0
 40
1.25
210
0.0
220
0.0
230
1.0
  0
CIRCLE
  8
0
 62
     7
 10
106.947144
 20
662.362427
 30
0.0
 40
1.25
210
0.0
220
0.0
230
1.0
  0
CIRCLE
  8
0
 62
     7
 10
106.947144
 20
647.362427
 30
0.0
 40
1.25
210
0.0
220
0.0
230
1.0
  0
CIRCLE
  8
0
 62
     7
 10
106.947144
 20
632.362427
 30
0.0
 40
1.25
210
0.0
220
0.0
230
1.0
  0
CIRCLE
  8
0
 62
     7
 10
106.947144
 20
617.362427
 30
0.0
 40
1.25
210
0.0
220
0.0
230
1.0
  0
CIRCLE
  8
0
 62
     7
 10
106.947144
 20
602.362427
 30
0.0
 40
1.25
210
0.0
220
0.0
230
1.0
  0
CIRCLE
  8
0
 62
     7
 10
191.447144
 20
602.362427
 30
0.0
 40
1.25
210
0.0
220
0.0
230
1.0
  0
CIRCLE
  8
0
 62
     7
 10
191.447144
 20
617.362427
 30
0.0
 40
1.25
210
0.0
220
0.0
230
1.0
  0
CIRCLE
  8
0
 62
     7
 10
191.447144
 20
632.362427
 30
0.0
 40
1.25
210
0.0
220
0.0
230
1.0
  0
CIRCLE
  8
0
 62
     7
 10
191.447144
 20
647.362427
 30
0.0
 40
1.25
210
0.0
220
0.0
230
1.0
  0
CIRCLE
  8
0
 62
     7
 10
191.447144
 20
662.362427
 30
0.0
 40
1.25
210
0.0
220
0.0
230
1.0
  0
CIRCLE
  8
0
 62
     7
 10
191.447144
 20
587.362427
 30
0.0
 40
1.25
210
0.0
220
0.0
230
1.0
  0
CIRCLE
  8
0
 62
     7
 10
106.947144
 20
587.362427
 30
0.0
 40
1.25
210
0.0
220
0.0
230
1.0
  0
CIRCLE
  8
0
 62
     7
 10
168.197144
 20
548.862427
 30
0.0
 40
1.25
210
0.0
220
0.0
230
1.0
  0
CIRCLE
  8
0
 62
     7
 10
130.197144
 20
548.862427
 30
0.0
 40
1.25
210
0.0
220
0.0
230
1.0
  0
CIRCLE
  8
0
 62
     7
 10
130.197144
 20
502.862427
 30
0.0
 40
1.25
210
0.0
220
0.0
230
1.0
  0
CIRCLE
  8
0
 62
     7
 10
168.197144
 20
502.862427
 30
0.0
 40
1.25
210
0.0
220
0.0
230
1.0
  0
CIRCLE
  8
0
 62
     7
 10
87.447144
 20
449.362427
 30
0.0
 40
1.25
210
0.0
220
0.0
230
1.0
  0
CIRCLE
  8
0
 62
     7
 10
109.947144
 20
449.362427
 30
0.0
 40
1.25
210
0.0
220
0.0
230
1.0
  0
CIRCLE
  8
0
 62
     7
 10
87.447144
 20
426.862427
 30
0.0
 40
1.25
210
0.0
220
0.0
230
1.0
  0
CIRCLE
  8
0
 62
     7
 10
109.947144
 20
426.862427
 30
0.0
 40
1.25
210
0.0
220
0.0
230
1.0
  0
CIRCLE
  8
0
 62
     7
 10
137.947144
 20
426.862427
 30
0.0
 40
1.25
210
0.0
220
0.0
230
1.0
  0
CIRCLE
  8
0
 62
     7
 10
137.947144
 20
449.362427
 30
0.0
 40
1.25
210
0.0
220
0.0
230
1.0
  0
CIRCLE
  8
0
 62
     7
 10
160.447144
 20
449.362427
 30
0.0
 40
1.25
210
0.0
220
0.0
230
1.0
  0
CIRCLE
  8
0
 62
     7
 10
160.447144
 20
426.862427
 30
0.0
 40
1.25
210
0.0
220
0.0
230
1.0
  0
CIRCLE
  8
0
 62
     7
 10
188.447144
 20
426.862427
 30
0.0
 40
1.25
210
0.0
220
0.0
230
1.0
  0
CIRCLE
  8
0
 62
     7
 10
188.447144
 20
449.362427
 30
0.0
 40
1.25
210
0.0
220
0.0
230
1.0
  0
CIRCLE
  8
0
 62
     7
 10
210.947144
 20
449.362427
 30
0.0
 40
1.25
210
0.0
220
0.0
230
1.0
  0
CIRCLE
  8
0
 62
     7
 10
210.947144
 20
426.862427
 30
0.0
 40
1.25
210
0.0
220
0.0
230
1.0
  0
CIRCLE
  8
0
 62
     7
 10
130.197144
 20
538.862427
 30
0.0
 40
1.25
210
0.0
220
0.0
230
1.0
  0
CIRCLE
  8
0
 62
     7
 10
168.197144
 20
558.862427
 30
0.0
 40
1.25
210
0.0
220
0.0
230
1.0
  0
CIRCLE
  8
0
 62
     7
 10
130.197144
 20
558.862427
 30
0.0
 40
1.25
210
0.0
220
0.0
230
1.0
  0
CIRCLE
  8
0
 62
     7
 10
130.197144
 20
512.862427
 30
0.0
 40
1.25
210
0.0
220
0.0
230
1.0
  0
CIRCLE
  8
0
 62
     7
 10
130.197144
 20
492.862427
 30
0.0
 40
1.25
210
0.0
220
0.0
230
1.0
  0
CIRCLE
  8
0
 62
     7
 10
168.197144
 20
492.862427
 30
0.0
 40
1.25
210
0.0
220
0.0
230
1.0
  0
CIRCLE
  8
0
 62
     7
 10
168.197144
 20
512.862427
 30
0.0
 40
1.25
210
0.0
220
0.0
230
1.0
  0
CIRCLE
  8
0
 62
     7
 10
168.197144
 20
538.862427
 30
0.0
 40
1.25
210
0.0
220
0.0
230
1.0
  0
CIRCLE
  8
0
 62
     7
 10
130.197144
 20
568.862427
 30
0.0
 40
1.25
210
0.0
220
0.0
230
1.0
  0
CIRCLE
  8
0
 62
     7
 10
130.197144
 20
522.862427
 30
0.0
 40
1.25
210
0.0
220
0.0
230
1.0
  0
CIRCLE
  8
0
 62
     7
 10
168.197144
 20
522.862427
 30
0.0
 40
1.25
210
0.0
220
0.0
230
1.0
  0
CIRCLE
  8
0
 62
     7
 10
168.197144
 20
568.862427
 30
0.0
 40
1.25
210
0.0
220
0.0
230
1.0
  0
ARC
  8
0
 62
     7
 10
204.197144
 20
432.862427
 30
0.0
 40
20.0
 50
269.999997
 51
360.0
210
0.0
220
0.0
230
1.0
  0
LINE
  8
0
 62
     7
 10
204.197144
 20
412.862427
 30
0.0
 11
94.197144
 21
412.862427
 31
0.0
210
0.0
220
0.0
230
1.0
  0
ARC
  8
0
 62
     7
 10
94.197144
 20
432.862427
 30
0.0
 40
20.0
 50
180.000005
 51
269.999997
210
0.0
220
0.0
230
1.0
  0
LINE
  8
0
 62
     7
 10
224.197144
 20
432.862427
 30
0.0
 11
224.197144
 21
505.121033
 31
0.0
210
0.0
220
0.0
230
1.0
  0
ARC
  8
0
 62
     7
 10
244.197144
 20
505.121033
 30
0.0
 40
20.0
 50
115.000004
 51
180.000005
210
0.0
220
0.0
230
1.0
  0
LINE
  8
0
 62
     7
 10
260.900909
 20
534.977661
 30
0.0
 11
235.744781
 21
523.247192
 31
0.0
210
0.0
220
0.0
230
1.0
  0
ARC
  8
0
 62
     7
 10
252.448547
 20
553.103821
 30
0.0
 40
20.0
 50
294.999999
 51
360.0
210
0.0
220
0.0
230
1.0
  0
LINE
  8
0
 62
     7
 10
272.448547
 20
657.621033
 30
0.0
 11
272.448547
 21
553.103821
 31
0.0
210
0.0
220
0.0
230
1.0
  0
ARC
  8
0
 62
     7
 10
252.448547
 20
657.621033
 30
0.0
 40
20.0
 50
0.0
 51
65.000001
210
0.0
220
0.0
230
1.0
  0
ARC
  8
0
 62
     7
 10
45.94574
 20
553.103821
 30
0.0
 40
20.0
 50
180.000005
 51
244.999996
210
0.0
220
0.0
230
1.0
  0
LINE
  8
0
 62
     7
 10
74.197144
 20
505.121033
 30
0.0
 11
74.197144
 21
432.862427
 31
0.0
210
0.0
220
0.0
230
1.0
  0
LINE
  8
0
 62
     7
 10
37.49337
 20
534.977661
 30
0.0
 11
62.649506
 21
523.247192
 31
0.0
210
0.0
220
0.0
230
1.0
  0
ARC
  8
0
 62
     7
 10
54.197144
 20
505.121033
 30
0.0
 40
20.0
 50
0.0
 51
65.000001
210
0.0
220
0.0
230
1.0
  0
LINE
  8
0
 62
     7
 10
25.94574
 20
657.621033
 30
0.0
 11
25.94574
 21
553.103821
 31
0.0
210
0.0
220
0.0
230
1.0
  0
ARC
  8
0
 62
     7
 10
45.94574
 20
657.621033
 30
0.0
 40
20.0
 50
115.000004
 51
180.000005
210
0.0
220
0.0
230
1.0
  0
ARC
  8
0
 62
     7
 10
94.197144
 20
777.862427
 30
0.0
 40
20.0
 50
90.000003
 51
180.000005
210
0.0
220
0.0
230
1.0
  0
LINE
  8
0
 62
     7
 10
62.649506
 20
687.477661
 30
0.0
 11
37.49337
 21
675.747192
 31
0.0
210
0.0
220
0.0
230
1.0
  0
LINE
  8
0
 62
     7
 10
74.197144
 20
777.862427
 30
0.0
 11
74.197144
 21
705.603821
 31
0.0
210
0.0
220
0.0
230
1.0
  0
ARC
  8
0
 62
     7
 10
54.197144
 20
705.603821
 30
0.0
 40
20.0
 50
294.999999
 51
360.0
210
0.0
220
0.0
230
1.0
  0
LINE
  8
0
 62
     7
 10
235.744781
 20
687.477661
 30
0.0
 11
260.900909
 21
675.747192
 31
0.0
210
0.0
220
0.0
230
1.0
  0
ARC
  8
0
 62
     7
 10
244.197144
 20
705.603821
 30
0.0
 40
20.0
 50
180.000005
 51
244.999996
210
0.0
220
0.0
230
1.0
  0
LINE
  8
0
 62
     7
 10
94.197144
 20
797.862427
 30
0.0
 11
204.197144
 21
797.862427
 31
0.0
210
0.0
220
0.0
230
1.0
  0
LINE
  8
0
 62
     7
 10
224.197144
 20
705.603821
 30
0.0
 11
224.197144
 21
777.862427
 31
0.0
210
0.0
220
0.0
230
1.0
  0
ARC
  8
0
 62
     7
 10
204.197144
 20
777.862427
 30
0.0
 40
20.0
 50
0.0
 51
90.000003
210
0.0
220
0.0
230
1.0
  0
ARC
  8
0
 62
     7
 10
132.697144
 20
763.297485
 30
0.0
 40
3.5
 50
0.0
 51
180.000005
210
0.0
220
0.0
230
1.0
  0
LINE
  8
0
 62
     7
 10
136.197144
 20
763.297485
 30
0.0
 11
136.197144
 21
760.297485
 31
0.0
210
0.0
220
0.0
230
1.0
  0
LINE
  8
0
 62
     7
 10
129.197144
 20
760.297485
 30
0.0
 11
129.197144
 21
763.297485
 31
0.0
210
0.0
220
0.0
230
1.0
  0
ARC
  8
0
 62
     7
 10
132.697144
 20
760.297485
 30
0.0
 40
3.5
 50
180.000005
 51
360.0
210
0.0
220
0.0
230
1.0
  0
CIRCLE
  8
0
 62
     7
 10
174.697144
 20
448.926941
 30
0.0
 40
3.5
210
0.0
220
0.0
230
1.0
  0
ARC
  8
0
 62
     7
 10
165.697144
 20
763.297485
 30
0.0
 40
3.5
 50
0.0
 51
180.000005
210
0.0
220
0.0
230
1.0
  0
LINE
  8
0
 62
     7
 10
169.197144
 20
763.297485
 30
0.0
 11
169.197144
 21
760.297485
 31
0.0
210
0.0
220
0.0
230
1.0
  0
LINE
  8
0
 62
     7
 10
162.197144
 20
760.297485
 30
0.0
 11
162.197144
 21
763.297485
 31
0.0
210
0.0
220
0.0
230
1.0
  0
ARC
  8
0
 62
     7
 10
165.697144
 20
760.297485
 30
0.0
 40
3.5
 50
180.000005
 51
360.0
210
0.0
220
0.0
230
1.0
  0
CIRCLE
  8
0
 62
     7
 10
123.697144
 20
448.926941
 30
0.0
 40
3.5
210
0.0
220
0.0
230
1.0
  0
CIRCLE
  8
0
 62
     7
 10
214.197144
 20
472.862427
 30
0.0
 40
1.25
210
0.0
220
0.0
230
1.0
  0
CIRCLE
  8
0
 62
     7
 10
209.197144
 20
572.862427
 30
0.0
 40
1.25
210
0.0
220
0.0
230
1.0
  0
CIRCLE
  8
0
 62
     7
 10
84.197144
 20
472.862427
 30
0.0
 40
1.25
210
0.0
220
0.0
230
1.0
  0
CIRCLE
  8
0
 62
     7
 10
89.197144
 20
572.862427
 30
0.0
 40
1.25
210
0.0
220
0.0
230
1.0
  0
CIRCLE
  8
0
 62
     7
 10
89.197144
 20
702.862427
 30
0.0
 40
1.25
210
0.0
220
0.0
230
1.0
  0
CIRCLE
  8
0
 62
     7
 10
84.197144
 20
562.862427
 30
0.0
 40
1.25
210
0.0
220
0.0
230
1.0
  0
CIRCLE
  8
0
 62
     7
 10
214.197144
 20
562.862427
 30
0.0
 40
1.25
210
0.0
220
0.0
230
1.0
  0
CIRCLE
  8
0
 62
     7
 10
209.197144
 20
702.862427
 30
0.0
 40
1.25
210
0.0
220
0.0
230
1.0
  0
LINE
  8
0
 62
     7
 10
63.44574
 20
572.862427
 30
0.0
 11
63.44574
 21
592.862427
 31
0.0
210
0.0
220
0.0
230
1.0
  0
ARC
  8
0
 62
     7
 10
60.94574
 20
572.862427
 30
0.0
 40
2.5
 50
179.999995
 51
360.0
210
0.0
220
0.0
230
1.0
  0
ARC
  8
0
 62
     7
 10
60.94574
 20
592.862427
 30
0.0
 40
2.5
 50
0.0
 51
179.999995
210
0.0
220
0.0
230
1.0
  0
LINE
  8
0
 62
     7
 10
58.44574
 20
592.862427
 30
0.0
 11
58.44574
 21
572.862427
 31
0.0
210
0.0
220
0.0
230
1.0
  0
ARC
  8
0
 62
     7
 10
60.94574
 20
637.862427
 30
0.0
 40
2.5
 50
0.0
 51
180.000005
210
0.0
220
0.0
230
1.0
  0
LINE
  8
0
 62
     7
 10
63.44574
 20
637.862427
 30
0.0
 11
63.44574
 21
617.862427
 31
0.0
210
0.0
220
0.0
230
1.0
  0
LINE
  8
0
 62
     7
 10
58.44574
 20
617.862427
 30
0.0
 11
58.44574
 21
637.862427
 31
0.0
210
0.0
220
0.0
230
1.0
  0
ARC
  8
0
 62
     7
 10
60.94574
 20
617.862427
 30
0.0
 40
2.5
 50
180.000005
 51
0.0
210
0.0
220
0.0
230
1.0
  0
LINE
  8
0
 62
     7
 10
78.44574
 20
572.862427
 30
0.0
 11
78.44574
 21
592.862427
 31
0.0
210
0.0
220
0.0
230
1.0
  0
ARC
  8
0
 62
     7
 10
75.94574
 20
572.862427
 30
0.0
 40
2.5
 50
180.000005
 51
0.0
210
0.0
220
0.0
230
1.0
  0
ARC
  8
0
 62
     7
 10
75.94574
 20
592.862427
 30
0.0
 40
2.5
 50
0.0
 51
179.999995
210
0.0
220
0.0
230
1.0
  0
LINE
  8
0
 62
     7
 10
73.44574
 20
592.862427
 30
0.0
 11
73.44574
 21
572.862427
 31
0.0
210
0.0
220
0.0
230
1.0
  0
ARC
  8
0
 62
     7
 10
121.697144
 20
580.362427
 30
0.0
 40
2.5
 50
90.000003
 51
269.999997
210
0.0
220
0.0
230
1.0
  0
LINE
  8
0
 62
     7
 10
121.697144
 20
582.862427
 30
0.0
 11
176.697144
 21
582.862427
 31
0.0
210
0.0
220
0.0
230
1.0
  0
LINE
  8
0
 62
     7
 10
176.697144
 20
577.862427
 30
0.0
 11
121.697144
 21
577.862427
 31
0.0
210
0.0
220
0.0
230
1.0
  0
ARC
  8
0
 62
     7
 10
176.697144
 20
580.362427
 30
0.0
 40
2.5
 50
269.999997
 51
90.000003
210
0.0
220
0.0
230
1.0
  0
ARC
  8
0
 62
     7
 10
252.448547
 20
572.862427
 30
0.0
 40
2.5
 50
180.000005
 51
0.0
210
0.0
220
0.0
230
1.0
  0
LINE
  8
0
 62
     7
 10
249.948547
 20
572.862427
 30
0.0
 11
249.948547
 21
592.862427
 31
0.0
210
0.0
220
0.0
230
1.0
  0
LINE
  8
0
 62
     7
 10
254.948547
 20
592.862427
 30
0.0
 11
254.948547
 21
572.862427
 31
0.0
210
0.0
220
0.0
230
1.0
  0
ARC
  8
0
 62
     7
 10
252.448547
 20
592.862427
 30
0.0
 40
2.5
 50
360.0
 51
179.999995
210
0.0
220
0.0
230
1.0
  0
LINE
  8
0
 62
     7
 10
103.377762
 20
771.859131
 30
0.0
 11
90.660858
 21
736.887634
 31
0.0
210
0.0
220
0.0
230
1.0
  0
ARC
  8
0
 62
     7
 10
106.197144
 20
770.833923
 30
0.0
 40
3.0
 50
0.0
 51
160.016893
210
0.0
220
0.0
230
1.0
  0
ARC
  8
0
 62
     7
 10
93.48024
 20
735.862427
 30
0.0
 40
3.0
 50
160.016893
 51
269.999997
210
0.0
220
0.0
230
1.0
  0
LINE
  8
0
 62
     7
 10
109.197144
 20
735.862427
 30
0.0
 11
109.197144
 21
770.833923
 31
0.0
210
0.0
220
0.0
230
1.0
  0
LINE
  8
0
 62
     7
 10
93.48024
 20
732.862427
 30
0.0
 11
106.197144
 21
732.862427
 31
0.0
210
0.0
220
0.0
230
1.0
  0
ARC
  8
0
 62
     7
 10
106.197144
 20
735.862427
 30
0.0
 40
3.0
 50
269.999997
 51
360.0
210
0.0
220
0.0
230
1.0
  0
ARC
  8
0
 62
     7
 10
237.448547
 20
572.862427
 30
0.0
 40
2.5
 50
179.999995
 51
360.0
210
0.0
220
0.0
230
1.0
  0
LINE
  8
0
 62
     7
 10
234.948547
 20
572.862427
 30
0.0
 11
234.948547
 21
592.862427
 31
0.0
210
0.0
220
0.0
230
1.0
  0
LINE
  8
0
 62
     7
 10
239.948547
 20
592.862427
 30
0.0
 11
239.948547
 21
572.862427
 31
0.0
210
0.0
220
0.0
230
1.0
  0
ARC
  8
0
 62
     7
 10
237.448547
 20
592.862427
 30
0.0
 40
2.5
 50
0.0
 51
179.999995
210
0.0
220
0.0
230
1.0
  0
LINE
  8
0
 62
     7
 10
204.914047
 20
732.862427
 30
0.0
 11
192.197144
 21
732.862427
 31
0.0
210
0.0
220
0.0
230
1.0
  0
ARC
  8
0
 62
     7
 10
204.914047
 20
735.862427
 30
0.0
 40
3.0
 50
269.999997
 51
19.983107
210
0.0
220
0.0
230
1.0
  0
ARC
  8
0
 62
     7
 10
192.197144
 20
735.862427
 30
0.0
 40
3.0
 50
180.000005
 51
269.999997
210
0.0
220
0.0
230
1.0
  0
LINE
  8
0
 62
     7
 10
195.016525
 20
771.859131
 30
0.0
 11
207.733429
 21
736.887634
 31
0.0
210
0.0
220
0.0
230
1.0
  0
LINE
  8
0
 62
     7
 10
189.197144
 20
735.862427
 30
0.0
 11
189.197144
 21
770.833923
 31
0.0
210
0.0
220
0.0
230
1.0
  0
ARC
  8
0
 62
     7
 10
192.197144
 20
770.833923
 30
0.0
 40
3.0
 50
19.983107
 51
180.000005
210
0.0
220
0.0
230
1.0
  0
ARC
  8
0
 62
     7
 10
222.448547
 20
572.862427
 30
0.0
 40
2.5
 50
180.000005
 51
0.0
210
0.0
220
0.0
230
1.0
  0
LINE
  8
0
 62
     7
 10
219.948547
 20
572.862427
 30
0.0
 11
219.948547
 21
592.862427
 31
0.0
210
0.0
220
0.0
230
1.0
  0
LINE
  8
0
 62
     7
 10
224.948547
 20
592.862427
 30
0.0
 11
224.948547
 21
572.862427
 31
0.0
210
0.0
220
0.0
230
1.0
  0
ARC
  8
0
 62
     7
 10
222.448547
 20
592.862427
 30
0.0
 40
2.5
 50
0.0
 51
179.999995
210
0.0
220
0.0
230
1.0
  0
ARC
  8
0
 62
     7
 10
75.94574
 20
637.862427
 30
0.0
 40
2.5
 50
0.0
 51
180.000005
210
0.0
220
0.0
230
1.0
  0
LINE
  8
0
 62
     7
 10
78.44574
 20
637.862427
 30
0.0
 11
78.44574
 21
617.862427
 31
0.0
210
0.0
220
0.0
230
1.0
  0
LINE
  8
0
 62
     7
 10
73.44574
 20
617.862427
 30
0.0
 11
73.44574
 21
637.862427
 31
0.0
210
0.0
220
0.0
230
1.0
  0
ARC
  8
0
 62
     7
 10
75.94574
 20
617.862427
 30
0.0
 40
2.5
 50
180.000005
 51
0.0
210
0.0
220
0.0
230
1.0
  0
LINE
  8
0
 62
     7
 10
45.94574
 20
652.862427
 30
0.0
 11
75.94574
 21
652.862427
 31
0.0
210
0.0
220
0.0
230
1.0
  0
ARC
  8
0
 62
     7
 10
45.94574
 20
655.362427
 30
0.0
 40
2.5
 50
120.963757
 51
269.999997
210
0.0
220
0.0
230
1.0
  0
ARC
  8
0
 62
     7
 10
75.94574
 20
655.362427
 30
0.0
 40
2.5
 50
269.999997
 51
360.0
210
0.0
220
0.0
230
1.0
  0
LINE
  8
0
 62
     7
 10
74.6595
 20
675.506165
 30
0.0
 11
44.6595
 21
657.506165
 31
0.0
210
0.0
220
0.0
230
1.0
  0
LINE
  8
0
 62
     7
 10
78.44574
 20
655.362427
 30
0.0
 11
78.44574
 21
673.362427
 31
0.0
210
0.0
220
0.0
230
1.0
  0
ARC
  8
0
 62
     7
 10
75.94574
 20
673.362427
 30
0.0
 40
2.5
 50
0.0
 51
120.963757
210
0.0
220
0.0
230
1.0
  0
LINE
  8
0
 62
     7
 10
249.948547
 20
637.862427
 30
0.0
 11
249.948547
 21
617.862427
 31
0.0
210
0.0
220
0.0
230
1.0
  0
ARC
  8
0
 62
     7
 10
252.448547
 20
637.862427
 30
0.0
 40
2.5
 50
0.0
 51
180.000005
210
0.0
220
0.0
230
1.0
  0
ARC
  8
0
 62
     7
 10
252.448547
 20
617.862427
 30
0.0
 40
2.5
 50
180.000005
 51
0.0
210
0.0
220
0.0
230
1.0
  0
LINE
  8
0
 62
     7
 10
254.948547
 20
617.862427
 30
0.0
 11
254.948547
 21
637.862427
 31
0.0
210
0.0
220
0.0
230
1.0
  0
ARC
  8
0
 62
     7
 10
222.448547
 20
673.362427
 30
0.0
 40
2.5
 50
59.036241
 51
179.999995
210
0.0
220
0.0
230
1.0
  0
LINE
  8
0
 62
     7
 10
223.734787
 20
675.506165
 30
0.0
 11
253.734787
 21
657.506165
 31
0.0
210
0.0
220
0.0
230
1.0
  0
LINE
  8
0
 62
     7
 10
219.948547
 20
655.362427
 30
0.0
 11
219.948547
 21
673.362427
 31
0.0
210
0.0
220
0.0
230
1.0
  0
ARC
  8
0
 62
     7
 10
252.448547
 20
655.362427
 30
0.0
 40
2.5
 50
269.999997
 51
59.036241
210
0.0
220
0.0
230
1.0
  0
ARC
  8
0
 62
     7
 10
222.448547
 20
655.362427
 30
0.0
 40
2.5
 50
180.000005
 51
269.999997
210
0.0
220
0.0
230
1.0
  0
LINE
  8
0
 62
     7
 10
252.448547
 20
652.862427
 30
0.0
 11
222.448547
 21
652.862427
 31
0.0
210
0.0
220
0.0
230
1.0
  0
LINE
  8
0
 62
     7
 10
234.948547
 20
637.862427
 30
0.0
 11
234.948547
 21
617.862427
 31
0.0
210
0.0
220
0.0
230
1.0
  0
ARC
  8
0
 62
     7
 10
237.448547
 20
637.862427
 30
0.0
 40
2.5
 50
0.0
 51
180.000005
210
0.0
220
0.0
230
1.0
  0
ARC
  8
0
 62
     7
 10
237.448547
 20
617.862427
 30
0.0
 40
2.5
 50
180.000005
 51
0.0
210
0.0
220
0.0
230
1.0
  0
LINE
  8
0
 62
     7
 10
239.948547
 20
617.862427
 30
0.0
 11
239.948547
 21
637.862427
 31
0.0
210
0.0
220
0.0
230
1.0
  0
ARC
  8
0
 62
     7
 10
45.94574
 20
555.362427
 30
0.0
 40
2.5
 50
90.000003
 51
239.036243
210
0.0
220
0.0
230
1.0
  0
LINE
  8
0
 62
     7
 10
45.94574
 20
557.862427
 30
0.0
 11
75.94574
 21
557.862427
 31
0.0
210
0.0
220
0.0
230
1.0
  0
LINE
  8
0
 62
     7
 10
74.6595
 20
535.218689
 30
0.0
 11
44.6595
 21
553.218689
 31
0.0
210
0.0
220
0.0
230
1.0
  0
ARC
  8
0
 62
     7
 10
75.94574
 20
555.362427
 30
0.0
 40
2.5
 50
0.0
 51
90.000003
210
0.0
220
0.0
230
1.0
  0
ARC
  8
0
 62
     7
 10
75.94574
 20
537.362427
 30
0.0
 40
2.5
 50
239.036243
 51
360.0
210
0.0
220
0.0
230
1.0
  0
LINE
  8
0
 62
     7
 10
78.44574
 20
555.362427
 30
0.0
 11
78.44574
 21
537.362427
 31
0.0
210
0.0
220
0.0
230
1.0
  0
LINE
  8
0
 62
     7
 10
219.948547
 20
637.862427
 30
0.0
 11
219.948547
 21
617.862427
 31
0.0
210
0.0
220
0.0
230
1.0
  0
ARC
  8
0
 62
     7
 10
222.448547
 20
637.862427
 30
0.0
 40
2.5
 50
0.0
 51
180.000005
210
0.0
220
0.0
230
1.0
  0
ARC
  8
0
 62
     7
 10
222.448547
 20
617.862427
 30
0.0
 40
2.5
 50
180.000005
 51
0.0
210
0.0
220
0.0
230
1.0
  0
LINE
  8
0
 62
     7
 10
224.948547
 20
617.862427
 30
0.0
 11
224.948547
 21
637.862427
 31
0.0
210
0.0
220
0.0
230
1.0
  0
LINE
  8
0
 62
     7
 10
223.734787
 20
535.218689
 30
0.0
 11
253.734787
 21
553.218689
 31
0.0
210
0.0
220
0.0
230
1.0
  0
ARC
  8
0
 62
     7
 10
222.448547
 20
537.362427
 30
0.0
 40
2.5
 50
180.000005
 51
300.963759
210
0.0
220
0.0
230
1.0
  0
ARC
  8
0
 62
     7
 10
252.448547
 20
555.362427
 30
0.0
 40
2.5
 50
300.963759
 51
90.000003
210
0.0
220
0.0
230
1.0
  0
LINE
  8
0
 62
     7
 10
219.948547
 20
555.362427
 30
0.0
 11
219.948547
 21
537.362427
 31
0.0
210
0.0
220
0.0
230
1.0
  0
LINE
  8
0
 62
     7
 10
252.448547
 20
557.862427
 30
0.0
 11
222.448547
 21
557.862427
 31
0.0
210
0.0
220
0.0
230
1.0
  0
ARC
  8
0
 62
     7
 10
222.448547
 20
555.362427
 30
0.0
 40
2.5
 50
90.000003
 51
180.000005
210
0.0
220
0.0
230
1.0
  0
LINE
  8
0
 62
     7
 10
48.44574
 20
572.862427
 30
0.0
 11
48.44574
 21
592.862427
 31
0.0
210
0.0
220
0.0
230
1.0
  0
ARC
  8
0
 62
     7
 10
45.94574
 20
572.862427
 30
0.0
 40
2.5
 50
180.000005
 51
0.0
210
0.0
220
0.0
230
1.0
  0
ARC
  8
0
 62
     7
 10
45.94574
 20
592.862427
 30
0.0
 40
2.5
 50
360.0
 51
179.999995
210
0.0
220
0.0
230
1.0
  0
LINE
  8
0
 62
     7
 10
43.44574
 20
592.862427
 30
0.0
 11
43.44574
 21
572.862427
 31
0.0
210
0.0
220
0.0
230
1.0
  0
ARC
  8
0
 62
     7
 10
45.94574
 20
637.862427
 30
0.0
 40
2.5
 50
0.0
 51
180.000005
210
0.0
220
0.0
230
1.0
  0
LINE
  8
0
 62
     7
 10
48.44574
 20
637.862427
 30
0.0
 11
48.44574
 21
617.862427
 31
0.0
210
0.0
220
0.0
230
1.0
  0
LINE
  8
0
 62
     7
 10
43.44574
 20
617.862427
 30
0.0
 11
43.44574
 21
637.862427
 31
0.0
210
0.0
220
0.0
230
1.0
  0
ARC
  8
0
 62
     7
 10
45.94574
 20
617.862427
 30
0.0
 40
2.5
 50
180.000005
 51
0.0
210
0.0
220
0.0
230
1.0
  0
CIRCLE
  8
0
 62
     7
 10
120.447144
 20
686.862427
 30
0.0
 40
1.25
210
0.0
220
0.0
230
1.0
  0
CIRCLE
  8
0
 62
     7
 10
177.947144
 20
686.862427
 30
0.0
 40
1.25
210
0.0
220
0.0
230
1.0
  0
CIRCLE
  8
0
 62
     7
 10
177.947144
 20
595.362427
 30
0.0
 40
1.25
210
0.0
220
0.0
230
1.0
  0
CIRCLE
  8
0
 62
     7
 10
120.447144
 20
595.362427
 30
0.0
 40
1.25
210
0.0
220
0.0
230
1.0
  0
CIRCLE
  8
0
 62
     7
 10
120.447144
 20
706.862427
 30
0.0
 40
1.25
210
0.0
220
0.0
230
1.0
  0
CIRCLE
  8
0
 62
     7
 10
177.947144
 20
706.862427
 30
0.0
 40
1.25
210
0.0
220
0.0
230
1.0
  0
CIRCLE
  8
0
 62
     7
 10
177.947144
 20
615.362427
 30
0.0
 40
1.25
210
0.0
220
0.0
230
1.0
  0
CIRCLE
  8
0
 62
     7
 10
120.447144
 20
615.362427
 30
0.0
 40
1.25
210
0.0
220
0.0
230
1.0
  0
CIRCLE
  8
0
 62
     7
 10
177.947144
 20
605.362427
 30
0.0
 40
1.25
210
0.0
220
0.0
230
1.0
  0
CIRCLE
  8
0
 62
     7
 10
120.447144
 20
605.362427
 30
0.0
 40
1.25
210
0.0
220
0.0
230
1.0
  0
CIRCLE
  8
0
 62
     7
 10
120.447144
 20
696.862427
 30
0.0
 40
1.25
210
0.0
220
0.0
230
1.0
  0
CIRCLE
  8
0
 62
     7
 10
177.947144
 20
696.862427
 30
0.0
 40
1.25
210
0.0
220
0.0
230
1.0
  0
ENDSEC
  0
EOF
